# Blender v2.79 (sub 0) OBJ File: ''
# www.blender.org
mtllib untitled.mtl
o Cube.013_Cube.014
v 41.736732 -0.451725 13.688398
v 41.736732 10.579073 13.688398
v 16.496986 -0.451725 14.173033
v 16.496986 10.579073 14.173033
v 41.742207 -0.451725 13.973345
v 41.742207 10.579073 13.973345
v 16.502460 -0.451725 14.457979
v 16.502460 10.579073 14.457979
vn -0.0192 0.0000 -0.9998
vn -0.9998 0.0000 0.0192
vn 0.0192 0.0000 0.9998
vn 0.9998 0.0000 -0.0192
vn 0.0000 -1.0000 0.0000
vn 0.0000 1.0000 0.0000
usemtl Material.002
s off
f 1//1 3//1 4//1 2//1
f 3//2 7//2 8//2 4//2
f 7//3 5//3 6//3 8//3
f 5//4 1//4 2//4 6//4
f 3//5 1//5 5//5 7//5
f 8//6 6//6 2//6 4//6
o Cube.012_Cube.013
v 22.776972 -0.451725 -10.967155
v 22.776972 10.579073 -10.967155
v 22.292353 -0.451725 14.272592
v 22.292353 10.579073 14.272592
v 23.061918 -0.451725 -10.961684
v 23.061918 10.579073 -10.961684
v 22.577299 -0.451725 14.278062
v 22.577299 10.579073 14.278062
vn -0.9998 0.0000 -0.0192
vn -0.0192 0.0000 0.9998
vn 0.9998 0.0000 0.0192
vn 0.0192 0.0000 -0.9998
vn 0.0000 -1.0000 0.0000
vn 0.0000 1.0000 -0.0000
usemtl Material.002
s off
f 9//7 11//7 12//7 10//7
f 11//8 15//8 16//8 12//8
f 15//9 13//9 14//9 16//9
f 13//10 9//10 10//10 14//10
f 11//11 9//11 13//11 15//11
f 16//12 14//12 10//12 12//12
o Cube.011_Cube.012
v 21.641567 -0.451725 -10.967155
v 21.641567 10.579073 -10.967155
v 21.156948 -0.451725 14.272592
v 21.156948 10.579073 14.272592
v 21.926514 -0.451725 -10.961684
v 21.926514 10.579073 -10.961684
v 21.441895 -0.451725 14.278062
v 21.441895 10.579073 14.278062
vn -0.9998 0.0000 -0.0192
vn -0.0192 0.0000 0.9998
vn 0.9998 0.0000 0.0192
vn 0.0192 0.0000 -0.9998
vn 0.0000 -1.0000 0.0000
vn 0.0000 1.0000 -0.0000
usemtl None
s off
f 17//13 19//13 20//13 18//13
f 19//14 23//14 24//14 20//14
f 23//15 21//15 22//15 24//15
f 21//16 17//16 18//16 22//16
f 19//17 17//17 21//17 23//17
f 24//18 22//18 18//18 20//18
o Cube.010_Cube.011
v 20.800144 -0.451725 -10.967155
v 20.800144 10.579073 -10.967155
v 20.315525 -0.451725 14.272592
v 20.315525 10.579073 14.272592
v 21.085091 -0.451725 -10.961684
v 21.085091 10.579073 -10.961684
v 20.600471 -0.451725 14.278062
v 20.600471 10.579073 14.278062
vn -0.9998 0.0000 -0.0192
vn -0.0192 0.0000 0.9998
vn 0.9998 0.0000 0.0192
vn 0.0192 0.0000 -0.9998
vn 0.0000 -1.0000 0.0000
vn 0.0000 1.0000 -0.0000
usemtl None
s off
f 25//19 27//19 28//19 26//19
f 27//20 31//20 32//20 28//20
f 31//21 29//21 30//21 32//21
f 29//22 25//22 26//22 30//22
f 27//23 25//23 29//23 31//23
f 32//24 30//24 26//24 28//24
o Cube.009_Cube.010
v 19.896496 -0.451725 -10.967155
v 19.896496 10.579073 -10.967155
v 19.411877 -0.451725 14.272592
v 19.411877 10.579073 14.272592
v 20.181442 -0.451725 -10.961684
v 20.181442 10.579073 -10.961684
v 19.696823 -0.451725 14.278062
v 19.696823 10.579073 14.278062
vn -0.9998 0.0000 -0.0192
vn -0.0192 0.0000 0.9998
vn 0.9998 0.0000 0.0192
vn 0.0192 0.0000 -0.9998
vn 0.0000 -1.0000 0.0000
vn 0.0000 1.0000 -0.0000
usemtl None
s off
f 33//25 35//25 36//25 34//25
f 35//26 39//26 40//26 36//26
f 39//27 37//27 38//27 40//27
f 37//28 33//28 34//28 38//28
f 35//29 33//29 37//29 39//29
f 40//30 38//30 34//30 36//30
o Cube.008_Cube.009
v 18.587542 -0.451725 -10.967155
v 18.587542 10.579073 -10.967155
v 18.102922 -0.451725 14.272592
v 18.102922 10.579073 14.272592
v 18.872488 -0.451725 -10.961684
v 18.872488 10.579073 -10.961684
v 18.387869 -0.451725 14.278062
v 18.387869 10.579073 14.278062
vn -0.9998 0.0000 -0.0192
vn -0.0192 0.0000 0.9998
vn 0.9998 0.0000 0.0192
vn 0.0192 0.0000 -0.9998
vn 0.0000 -1.0000 0.0000
vn 0.0000 1.0000 -0.0000
usemtl None
s off
f 41//31 43//31 44//31 42//31
f 43//32 47//32 48//32 44//32
f 47//33 45//33 46//33 48//33
f 45//34 41//34 42//34 46//34
f 43//35 41//35 45//35 47//35
f 48//36 46//36 42//36 44//36
o Cube.007_Cube.008
v 17.191236 -0.451725 -10.967155
v 17.191236 10.579073 -10.967155
v 16.706617 -0.451725 14.272592
v 16.706617 10.579073 14.272592
v 17.476183 -0.451725 -10.961684
v 17.476183 10.579073 -10.961684
v 16.991564 -0.451725 14.278062
v 16.991564 10.579073 14.278062
vn -0.9998 0.0000 -0.0192
vn -0.0192 0.0000 0.9998
vn 0.9998 0.0000 0.0192
vn 0.0192 0.0000 -0.9998
vn 0.0000 -1.0000 0.0000
vn 0.0000 1.0000 -0.0000
usemtl Material.002
s off
f 49//37 51//37 52//37 50//37
f 51//38 55//38 56//38 52//38
f 55//39 53//39 54//39 56//39
f 53//40 49//40 50//40 54//40
f 51//41 49//41 53//41 55//41
f 56//42 54//42 50//42 52//42
o Cube.006_Cube.007
v 9.827019 -0.451725 -10.967155
v 9.827019 10.579073 -10.967155
v 9.342401 -0.451725 14.272592
v 9.342401 10.579073 14.272592
v 10.111966 -0.451725 -10.961684
v 10.111966 10.579073 -10.961684
v 9.627348 -0.451725 14.278062
v 9.627348 10.579073 14.278062
vn -0.9998 0.0000 -0.0192
vn -0.0192 0.0000 0.9998
vn 0.9998 0.0000 0.0192
vn 0.0192 0.0000 -0.9998
vn 0.0000 -1.0000 0.0000
vn 0.0000 1.0000 0.0000
usemtl Material.002
s off
f 57//43 59//43 60//43 58//43
f 59//44 63//44 64//44 60//44
f 63//45 61//45 62//45 64//45
f 61//46 57//46 58//46 62//46
f 59//47 57//47 61//47 63//47
f 64//48 62//48 58//48 60//48
o Cube.005_Cube.006
v 5.907781 -0.568250 20.019335
v 5.907781 10.462549 20.019335
v 31.135223 -0.568250 20.944380
v 31.135223 10.462549 20.944380
v 5.918223 -0.568250 19.734526
v 5.918223 10.462549 19.734526
v 31.145668 -0.568250 20.659571
v 31.145668 10.462549 20.659571
vn -0.0366 0.0000 0.9993
vn 0.9993 0.0000 0.0366
vn 0.0366 0.0000 -0.9993
vn -0.9993 0.0000 -0.0366
vn 0.0000 -1.0000 -0.0000
vn 0.0000 1.0000 -0.0000
usemtl Material.002
s off
f 65//49 67//49 68//49 66//49
f 67//50 71//50 72//50 68//50
f 71//51 69//51 70//51 72//51
f 69//52 65//52 66//52 70//52
f 67//53 65//53 69//53 71//53
f 72//54 70//54 66//54 68//54
o Cube.004_Cube.005
v -19.249697 -0.568250 18.936502
v -19.249697 10.462549 18.936502
v 5.977747 -0.568250 19.861547
v 5.977747 10.462549 19.861547
v -19.239254 -0.568250 18.651693
v -19.239254 10.462549 18.651693
v 5.988190 -0.568250 19.576738
v 5.988190 10.462549 19.576738
vn -0.0366 0.0000 0.9993
vn 0.9993 0.0000 0.0366
vn 0.0366 0.0000 -0.9993
vn -0.9993 0.0000 -0.0366
vn 0.0000 -1.0000 0.0000
vn 0.0000 1.0000 0.0000
usemtl Material.002
s off
f 73//55 75//55 76//55 74//55
f 75//56 79//56 80//56 76//56
f 79//57 77//57 78//57 80//57
f 77//58 73//58 74//58 78//58
f 75//59 73//59 77//59 79//59
f 80//60 78//60 74//60 76//60
o Cube.003_Cube.004
v -15.757029 -0.568250 13.154068
v -15.757029 10.462549 13.154068
v 9.470415 -0.568250 14.079113
v 9.470415 10.462549 14.079113
v -15.746586 -0.568250 12.869259
v -15.746586 10.462549 12.869259
v 9.480858 -0.568250 13.794304
v 9.480858 10.462549 13.794304
vn -0.0366 0.0000 0.9993
vn 0.9993 0.0000 0.0366
vn 0.0366 0.0000 -0.9993
vn -0.9993 0.0000 -0.0366
vn 0.0000 -1.0000 0.0000
vn 0.0000 1.0000 0.0000
usemtl Material.002
s off
f 81//61 83//61 84//61 82//61
f 83//62 87//62 88//62 84//62
f 87//63 85//63 86//63 88//63
f 85//64 81//64 82//64 86//64
f 83//65 81//65 85//65 87//65
f 88//66 86//66 82//66 84//66
o Cube.002_Cube.003
v -0.023362 -2.353739 -5.001282
v -0.023362 8.677059 -5.001282
v 8.059509 -2.353739 -5.283543
v 8.059509 8.677059 -5.283543
v -0.010483 -2.353739 -4.632506
v -0.010483 8.677059 -4.632506
v 8.072388 -2.353739 -4.914767
v 8.072388 8.677059 -4.914767
vn -0.0349 0.0000 -0.9994
vn 0.9994 0.0000 -0.0349
vn 0.0349 0.0000 0.9994
vn -0.9994 0.0000 0.0349
vn 0.0000 -1.0000 -0.0000
vn 0.0000 1.0000 0.0000
usemtl Material.002
s off
f 89//67 90//67 92//67 91//67
f 91//68 92//68 96//68 95//68
f 95//69 96//69 94//69 93//69
f 93//70 94//70 90//70 89//70
f 91//71 95//71 93//71 89//71
f 96//72 92//72 90//72 94//72
o Cube.001_Cube.002
v -0.399397 -0.407381 3.238867
v -0.399397 10.623418 3.238867
v 7.683474 -0.407381 2.956606
v 7.683474 10.623418 2.956606
v -0.386519 -0.407381 3.607642
v -0.386519 10.623418 3.607642
v 7.696352 -0.407381 3.325381
v 7.696352 10.623418 3.325381
vn -0.0349 0.0000 -0.9994
vn 0.9994 0.0000 -0.0349
vn 0.0349 0.0000 0.9994
vn -0.9994 0.0000 0.0349
vn 0.0000 -1.0000 -0.0000
vn 0.0000 1.0000 -0.0000
usemtl Material.002
s off
f 97//73 98//73 100//73 99//73
f 99//74 100//74 104//74 103//74
f 103//75 104//75 102//75 101//75
f 101//76 102//76 98//76 97//76
f 99//77 103//77 101//77 97//77
f 104//78 100//78 98//78 102//78
o Cube_Cube.001
v 7.651780 -2.185400 3.075851
v 7.651780 8.845400 3.075851
v 7.552971 -2.185400 -5.011343
v 7.552971 8.845400 -5.011343
v 8.020752 -2.185400 3.071343
v 8.020752 8.845400 3.071343
v 7.921943 -2.185400 -5.015851
v 7.921943 8.845400 -5.015851
vn -0.9999 0.0000 0.0122
vn -0.0122 0.0000 -0.9999
vn 0.9999 0.0000 -0.0122
vn 0.0122 0.0000 0.9999
vn 0.0000 -1.0000 0.0000
vn 0.0000 1.0000 0.0000
usemtl Material.002
s off
f 105//79 106//79 108//79 107//79
f 107//80 108//80 112//80 111//80
f 111//81 112//81 110//81 109//81
f 109//82 110//82 106//82 105//82
f 107//83 111//83 109//83 105//83
f 112//84 108//84 106//84 110//84
o Plane
v -32.392498 0.000000 32.392498
v 32.392498 0.000000 32.392498
v -32.392498 0.000000 -32.392498
v 32.392498 0.000000 -32.392498
vn 0.0000 1.0000 0.0000
usemtl Material.002
s off
f 113//85 114//85 116//85 115//85
